<mxfile host="app.diagrams.net" agent="Mozilla/5.0 (Windows NT 10.0; Win64; x64) AppleWebKit/537.36 (KHTML, like Gecko) Chrome/135.0.0.0 Safari/537.36" version="26.2.5">
  <diagram name="Page-1" id="NNiyfmfkYaTr8DpHalzq">
    <mxGraphModel dx="788" dy="451" grid="1" gridSize="10" guides="1" tooltips="1" connect="1" arrows="1" fold="1" page="1" pageScale="1" pageWidth="850" pageHeight="1100" math="0" shadow="0">
      <root>
        <mxCell id="0" />
        <mxCell id="1" parent="0" />
        <mxCell id="-JphsKRF4HM28fqfrq-H-10" style="edgeStyle=orthogonalEdgeStyle;rounded=0;orthogonalLoop=1;jettySize=auto;html=1;exitX=0.5;exitY=1;exitDx=0;exitDy=0;entryX=0.5;entryY=1;entryDx=0;entryDy=0;" edge="1" parent="1" source="-JphsKRF4HM28fqfrq-H-1" target="-JphsKRF4HM28fqfrq-H-5">
          <mxGeometry relative="1" as="geometry" />
        </mxCell>
        <mxCell id="-JphsKRF4HM28fqfrq-H-1" value="Threat feeds Microservice" style="whiteSpace=wrap;html=1;aspect=fixed;" vertex="1" parent="1">
          <mxGeometry x="70" y="195" width="120" height="120" as="geometry" />
        </mxCell>
        <mxCell id="-JphsKRF4HM28fqfrq-H-2" value="" style="swimlane;startSize=0;" vertex="1" parent="1">
          <mxGeometry x="510" y="120" width="290" height="400" as="geometry" />
        </mxCell>
        <mxCell id="-JphsKRF4HM28fqfrq-H-6" style="edgeStyle=orthogonalEdgeStyle;rounded=0;orthogonalLoop=1;jettySize=auto;html=1;exitX=0.25;exitY=1;exitDx=0;exitDy=0;entryX=0.25;entryY=0;entryDx=0;entryDy=0;" edge="1" parent="-JphsKRF4HM28fqfrq-H-2" source="-JphsKRF4HM28fqfrq-H-4" target="-JphsKRF4HM28fqfrq-H-5">
          <mxGeometry relative="1" as="geometry" />
        </mxCell>
        <mxCell id="-JphsKRF4HM28fqfrq-H-4" value="Kafka" style="rounded=0;whiteSpace=wrap;html=1;" vertex="1" parent="-JphsKRF4HM28fqfrq-H-2">
          <mxGeometry x="85" y="100" width="120" height="60" as="geometry" />
        </mxCell>
        <mxCell id="-JphsKRF4HM28fqfrq-H-12" style="edgeStyle=orthogonalEdgeStyle;rounded=0;orthogonalLoop=1;jettySize=auto;html=1;exitX=0.75;exitY=0;exitDx=0;exitDy=0;entryX=0.75;entryY=1;entryDx=0;entryDy=0;" edge="1" parent="-JphsKRF4HM28fqfrq-H-2" source="-JphsKRF4HM28fqfrq-H-5" target="-JphsKRF4HM28fqfrq-H-4">
          <mxGeometry relative="1" as="geometry" />
        </mxCell>
        <mxCell id="-JphsKRF4HM28fqfrq-H-5" value="Spark" style="rounded=0;whiteSpace=wrap;html=1;" vertex="1" parent="-JphsKRF4HM28fqfrq-H-2">
          <mxGeometry x="85" y="240" width="120" height="60" as="geometry" />
        </mxCell>
        <mxCell id="-JphsKRF4HM28fqfrq-H-7" value="Receive Client side IPs" style="text;html=1;align=center;verticalAlign=middle;whiteSpace=wrap;rounded=0;" vertex="1" parent="-JphsKRF4HM28fqfrq-H-2">
          <mxGeometry x="40" y="180" width="60" height="30" as="geometry" />
        </mxCell>
        <mxCell id="-JphsKRF4HM28fqfrq-H-13" value="Send flagged IP addresses" style="text;html=1;align=center;verticalAlign=middle;whiteSpace=wrap;rounded=0;" vertex="1" parent="-JphsKRF4HM28fqfrq-H-2">
          <mxGeometry x="190" y="180" width="70" height="45" as="geometry" />
        </mxCell>
        <mxCell id="-JphsKRF4HM28fqfrq-H-15" value="&lt;font style=&quot;font-size: 18px;&quot;&gt;On-prem cluster&lt;/font&gt;" style="text;html=1;align=center;verticalAlign=middle;whiteSpace=wrap;rounded=0;" vertex="1" parent="-JphsKRF4HM28fqfrq-H-2">
          <mxGeometry x="77.5" y="20" width="135" height="30" as="geometry" />
        </mxCell>
        <mxCell id="-JphsKRF4HM28fqfrq-H-8" style="edgeStyle=orthogonalEdgeStyle;rounded=0;orthogonalLoop=1;jettySize=auto;html=1;exitX=0;exitY=0.5;exitDx=0;exitDy=0;entryX=1;entryY=0.5;entryDx=0;entryDy=0;" edge="1" parent="1" source="-JphsKRF4HM28fqfrq-H-5" target="-JphsKRF4HM28fqfrq-H-1">
          <mxGeometry relative="1" as="geometry" />
        </mxCell>
        <mxCell id="-JphsKRF4HM28fqfrq-H-9" value="&lt;font style=&quot;font-size: 14px;&quot;&gt;Query https://service.xvisor.ai/ipthreat/threatfeeds.json&lt;/font&gt;" style="text;html=1;align=center;verticalAlign=middle;whiteSpace=wrap;rounded=0;" vertex="1" parent="1">
          <mxGeometry x="230" y="205" width="260" height="20" as="geometry" />
        </mxCell>
        <mxCell id="-JphsKRF4HM28fqfrq-H-11" value="&lt;font style=&quot;font-size: 14px;&quot;&gt;Receive potential bad IP addresses&lt;/font&gt;" style="text;html=1;align=center;verticalAlign=middle;whiteSpace=wrap;rounded=0;" vertex="1" parent="1">
          <mxGeometry x="220" y="400" width="150" height="30" as="geometry" />
        </mxCell>
        <mxCell id="-JphsKRF4HM28fqfrq-H-14" value="&lt;h1 style=&quot;margin-top: 0px;&quot;&gt;Flagging bad IP addresses&lt;/h1&gt;" style="text;html=1;whiteSpace=wrap;overflow=hidden;rounded=0;" vertex="1" parent="1">
          <mxGeometry x="290" y="40" width="330" height="50" as="geometry" />
        </mxCell>
      </root>
    </mxGraphModel>
  </diagram>
</mxfile>
